<svg id="Слой_1" data-name="Слой 1" xmlns="http://www.w3.org/2000/svg" viewBox="0 0 661.4 473.05"><defs><style>.cls-1{fill:#fff;}</style></defs><title>logo1</title><path d="M6.11,421a32.81,32.81,0,0,1,4.83-1.05c5.16-.39,6.4-3.39,6.49-8.11.37-18,1.09-36,1.6-54q2.16-76.69,4.29-153.4c.13-4.27.67-8.45-5.34-9.26-.77-.1-1.77-2.27-1.78-3.49-.13-13,0-26-.13-39,0-2.81,1-4.17,3.79-3.73A32.6,32.6,0,0,1,27,150.64c20.31,8.19,40.39,17,60.91,24.64,17.7,6.58,35.86,12,53.89,17.65,9,2.83,18.08,5.35,27.23,7.57,7.73,1.88,12.18,9.16,11.88,16.67-.42,10.65-.44,21.31-.86,32-1.11,28.24-2.43,56.47-3.5,84.71-.65,17.48-1,35-1.49,52.45-.09,2.88.37,4.62,3.91,4.88,2.84.2,4.38,2.13,4.21,5.53-.32,6.15-.07,12.32-.1,18.49,0,6.71-3.09,10-9.65,11q-16.72,2.56-33.38,5.53c-4,.71-6.07-.32-6-4.72.12-7.33.14-14.66,0-22-.08-4.56,2.29-6.71,6.34-8.08s6.56-3.77,6.73-8.56c1-28,2.17-55.93,3.34-83.9.93-22.3,2-44.59,2.76-66.9.05-1.2-1.66-3.28-2.88-3.57-10.47-2.54-21-4.8-31.52-7.07-2.67-.57-3.85.44-4,3.42q-2.78,63.16-5.77,126.31c-.6,13-1.06,26-1.85,38.94-.24,4,.57,6.09,5,5.43,3.61-.55,4.82,1.84,4.88,4.75.15,8.16.57,16.38-.23,24.46-.27,2.73-3.41,6.61-6,7.41-11.77,3.6-23.8,6.34-35.77,9.25-3.51.85-5.16-.57-5.07-4.49.21-9.66.11-19.33,0-29,0-3.29,1-5.29,4.7-5.62,5.7-.5,7.16-2.25,7.31-7.9q2.15-79.69,4.29-159.38c.16-6,.2-12,.82-18,.32-3-1.08-3.88-3.3-4.56-9.85-3-19.7-6.05-29.58-9-4.34-1.3-4.83-.4-4.62,4.29.26,5.8-.2,11.64-.4,17.46q-2.93,85.16-5.83,170.32c-.11,3.45.37,6.91.57,10.28,7.12,1.24,7.18,1.27,7.16,8.76,0,8.83-.28,17.66,0,26.48.12,4.38-1.78,7.36-5.46,8.59-12,4-24.09,7.6-36.18,11.23-1,.31-2.27-.25-3.42-.4Z"/><path d="M577.5,333c-1.5,19.05-2.94,37.3-4.38,55.55-.29,3.65-.44,7.32-1,10.94s.78,6.28,4.16,7.48c3.67,1.3,4.43,4,4.26,7.32-.43,9-.8,18-1.27,26.94-.23,4.4-3.34,6.66-7.74,5.51C561,444,550.48,441,539.9,438.23c-4.2-1.1-6-3.51-5.82-7.86.43-8.77.79-17.56.95-26.34.06-3.43,1.77-4.46,4.72-4.14,4.4.47,5.61-1.56,5.78-5.77,1.4-33.95,3-67.89,4.54-101.84,1.39-31.61,2.67-63.23,4.07-94.84.27-6.3,7.23-14.56,13.88-16.66,17.71-5.6,35.56-10.8,53.1-16.9,7.27-2.53,13.88-6.95,20.8-10.5a24.9,24.9,0,0,1,4.5-2.12c7-1.95,9-.31,8.86,6.8-.31,14.31-.84,28.61-.79,42.92,0,4.77-1.62,7.59-5.94,8.9-3.49,1.06-4.38,3.4-4.48,6.78-.64,21.13-1.22,42.27-2.18,63.39-1.15,25.22-2.65,50.42-4,75.63-1.1,20.6-2.26,41.2-3.19,61.8-.06,1.42,1.43,4,2.48,4.19,5,.76,6.32,4,6.1,8.19q-.88,16.89-2.23,33.77c-.35,4.57-3.17,6-7.64,4.43-9.39-3.35-18.75-6.78-28.21-9.95-4.82-1.61-7.44-4.15-7.19-9.69.41-8.82.13-17.66.32-26.49a26.54,26.54,0,0,1,1.27-5.73c.71-2.81,2.27-3.49,5.19-2.79,4.76,1.15,6.06-.08,6.27-4.84,1-23.45,1.92-46.92,3.16-70.36.22-4.13-1-5.33-4.89-5.27C598.87,333.08,588.4,333,577.5,333Z"/><path d="M616.33,249.82H619c0-11.65-.06-23.29,0-34.94,0-3-.61-4.32-4-3.5-9.79,2.34-19.63,4.48-29.47,6.59-3.9.84-6.31,3-6.39,7-.41,20.62-.79,41.25-.93,61.87,0,1.26,2.07,3.58,3.26,3.63q14.22.55,28.46.3c3.82-.07,6.69-1.36,6.52-6.51C616.07,272.79,616.33,261.3,616.33,249.82Z"/><path d="M432.41,180.91A65.08,65.08,0,0,1,409,172.36c-6-3.53-11.39-8-16.9-12.24-14.54-11.2-24.4-26.13-33.05-42s-10.47-32.73-8.27-50.34c.43-3.46.3-7,.76-10.46.73-5.58-2.55-9.15-6.15-12.38-3-2.67-6.17-2.17-9.56.07C324.17,52.72,318,64,313.88,76.84c-7.65,24-3.11,46.63,9.29,67.6,5.15,8.69,12.89,16,20,23.33,4.4,4.55,9.9,8,14.71,13-2-.22-4.06,0-5.81-.74A134.66,134.66,0,0,1,311,154.33c-22.46-20.61-34.19-46.76-37.42-76.63-.82-7.56,1.43-15.5,2.63-23.21.71-4.57.75-8.82-3.58-11.41-1.46-.88-4.51-1-5.72-.1-13.57,10.61-23.34,23.6-24.82,41.5-.63,7.57-2,15.15-1.8,22.69.4,12.88,3.8,25,11.94,35.47,4.56,5.86,8.38,12.39,13.52,17.67,5.94,6.11,12.95,11.18,19.5,16.71.6.5,1.15,1,2.61,2.39-2.33.14-3.79.59-5,.23-15.74-4.67-30.4-11.16-41.32-24.19-6.25-7.47-13.18-14.38-19.26-22-8.81-11-13.17-24.3-17.34-37.53-3.21-10.19-1.61-20.58-1.09-31,.44-9.06,1.93-17.88,6.15-25.61,9.38-17.2,22.67-30.21,42.64-34.57,4.09-.89,7.76-.09,10.8,3.32,6.09,6.83,12.51,13.37,18.56,20.23,2.26,2.57,3.71,1.75,5.72-.06,5.88-5.33,11.85-10.57,17.83-15.78,5.59-4.88,12.43-7.08,19.54-8,2.35-.32,5.84.73,7.35,2.45C339.91,15.36,347,24.15,354,33.08c2.73,3.51,4.43,1.63,6.29-.4,4.13-4.51,8-9.31,12.26-13.65A50,50,0,0,1,397,5.42c7-1.65,9.72-.55,13.79,5.41C416,18.38,421,26,426,33.28c-7.61,6.68-15,13-22.22,19.57-10,9.19-15.35,20.83-16.31,34.28-1.21,17-.79,34,6.82,49.84,7.86,16.37,18.86,30,34.82,39.2a40.9,40.9,0,0,1,4.12,3.12Z"/><path d="M307.16,383.24c0,7.31.23,14.3-.08,21.26a7.48,7.48,0,0,1-7.27,7.44c-12.93,1-25.89,1.67-39.64,2.51,0-9.4-.1-18.32.16-27.22,0-.78,2.33-2,3.67-2.15,5.56-.61,8.1-3.18,8.11-8.8V331h-14.5c-6.33,0-12.66-.05-19,0-3.62,0-6.38,1.75-6.43,5.51-.17,16.1-.07,32.21-.07,48.73a8.12,8.12,0,0,1,3.18.59c1.45.87,3.6,2.24,3.66,3.49.35,7.48.71,15,0,22.47-.45,4.71-4.64,7.31-9.23,7.77q-15.61,1.53-31.31,2.35c-6.59.33-7.3-.67-7.31-7.44V400c0-9.69.55-10.28,10.68-11.26.43-8.33.94-16.73,1.31-25.15q1.89-42.17,3.69-84.36c.7-16.47,1.05-33,2.17-49.43A26.06,26.06,0,0,1,213.58,217c1.73-2.42,6.14-4.32,9.21-4.14,23.44,1.36,46.85,3.31,70.27,5,7.31.54,9.78,2,9.93,9.33.29,14.76-.41,29.55-.71,44.32,0,2.5-.08,5-.17,7.5q-1.49,41.32-3,82.64c-.15,4.14-.69,8.26-.8,12.4C298.1,382.42,298.17,382.42,307.16,383.24Z"/><path d="M254.11,299.86V300c4,0,8-.06,12,0,9,.16,9.94-.72,10-10.08,0-6.66,0-13.32,0-20,0-5.16-.12-10.33.11-15.48.21-4.73-1.48-7.19-6.23-7.45q-13.14-.72-26.31-1c-6.88-.14-9.22,1.79-9.49,8.54-.56,13.6-.71,27.22-1.11,40.83-.09,3.27,1.49,4.49,4.53,4.48C243.12,299.84,248.61,299.86,254.11,299.86Z"/><path d="M510.11,249.92c0-4.66-.13-8.64,0-12.61.13-3.2-1-4.84-4.32-4.31-9.06,1.44-18.11,2.88-27.13,4.49-3.11.55-7.25.66-8.87,2.65s-.62,6-.71,9.16q-.6,20.46-1.17,40.91c-.09,3.36.43,4.46,4.77,4.35,17.13-.42,34.29.05,51.43.41,3.51.07,8.07,6.06,7.91,10.19-.51,13.92-1.24,27.83-1.89,41.74-.34,7.47-.71,14.94-1,22.41Q528,393.24,527,417.17c-.47,10.79-5.8,15.64-16.22,13.76-21.53-3.87-43-8.08-64.48-12.3-5.18-1-8.92-6.06-9.08-12.35-.24-9.65-.23-19.33,0-29,.1-3.71,1.71-6.58,6.43-6.37,5.95.25,11.92.06,18.46.06,0,4.61-.11,8.22,0,11.83.12,3.09,1.08,5,5,5.32,11.48,1,22.91,2.7,34.95,4.19a34,34,0,0,0,1-5.06q.63-9.18.94-18.39c.4-11.43.62-22.87,1.09-34.3.13-3.41-.83-4.7-4.5-4.64-14.49.21-29-.41-43.46.28-11.92.56-16.2-6.77-16.05-16.37.35-22,1-44,1.56-66,.18-7.16-.12-14.37.64-21.46.69-6.46,1.89-13.14,8-17.16a16.52,16.52,0,0,1,5.44-2.28c21.58-4.69,43.17-9.4,64.81-13.85,10.65-2.19,14.58,1.3,14.38,12.09-.23,12.47-.6,24.93-.8,37.4-.07,4.44-2.18,7-6.5,7.22C522.72,250.12,516.74,249.92,510.11,249.92Z"/><path d="M363.91,248h-12c-3.89,0-5.67,2-5.83,5.81A159.25,159.25,0,0,1,345,271c-.22,1.5-2.92,3.58-4.64,3.74a96.76,96.76,0,0,1-16,.08c-1.46-.1-4-2.09-4-3.15.39-15.55.95-31.1,1.91-46.62.3-4.86,3.52-7.53,8.79-7.55,5.65,0,11.31-.45,17-.7,13.56-.62,27.14-1,40.67-1.93,11.93-.86,23.81-2.42,35.71-3.66,1-.11,2-.21,3-.25,9.45-.31,9.75,0,9.75,9.5q0,20.74,0,41.49a11.49,11.49,0,0,1-10.93,11c-3.33,0-6.68-.26-10,0-4.75.38-6.09-2.17-6.08-6.24,0-5.5-.09-11,0-16.5.07-2.87-.79-4.41-3.94-4.28-3.49.14-7.08-.43-10.46.21-1.69.32-4.21,2.59-4.28,4.07-.43,9.1,0,18.24-.34,27.35q-1.78,48.2-4,96.38c-.23,5.11.33,8.67,6.52,9.26,1.3.12,3.22,3,3.33,4.67.42,6.31.35,12.66.15,19-.12,3.83-2.22,6.27-6.34,6.07-13.08-.63-26.16-1.25-39.22-2.19-1.24-.09-3.25-2.3-3.33-3.61a130.86,130.86,0,0,1,.05-18.47c.14-1.69,2.52-4,4.33-4.57,8-2.38,8.58-2.75,8.76-11.09q1.27-61.23,2.5-122.44C363.92,249.94,363.91,249.3,363.91,248Z"/><path class="cls-1" d="M616.33,249.82c0,11.48-.26,23,.13,34.44.17,5.15-2.7,6.44-6.52,6.51q-14.22.27-28.46-.3c-1.19-.05-3.27-2.37-3.26-3.63.14-20.62.52-41.25.93-61.87.08-4,2.49-6.16,6.39-7,9.84-2.11,19.68-4.25,29.47-6.59,3.42-.82,4.06.46,4,3.5-.1,11.65,0,23.29,0,34.94Z"/><path class="cls-1" d="M254.11,299.86c-5.5,0-11,0-16.49,0-3,0-4.62-1.21-4.53-4.48.4-13.61.55-27.23,1.11-40.83.27-6.75,2.61-8.68,9.49-8.54q13.16.28,26.31,1c4.75.26,6.44,2.72,6.23,7.45-.23,5.15-.1,10.32-.11,15.48,0,6.66,0,13.32,0,20-.06,9.36-1,10.24-10,10.08-4-.07-8,0-12,0Z"/></svg>