<svg xmlns="http://www.w3.org/2000/svg" >
    <style id="star" viewBox="0 0 197.4 188.76">
        <path d="M47.08,182.72c-6.7-.18-8.84-2.65-7.88-8.38,2.72-16.26,5.47-32.51,8.46-48.72.72-3.93.35-6.7-2.8-9.66Q26.68,98.82,9.14,81c-1.82-1.84-3.5-5.51-2.85-7.59s4.17-4,6.7-4.44c16.43-2.68,32.92-5,49.43-7.22,3.88-.52,6-2.21,7.74-5.71C77.28,41.18,84.69,26.45,92,11.66c1.43-2.91,2.84-5.8,6.72-5.78s5.25,2.9,6.68,5.81c7.34,15,14.85,29.81,22,44.84a8.09,8.09,0,0,0,7,5.13c16.67,2.27,33.33,4.63,49.93,7.34,2.55.41,6.13,2.41,6.77,4.44S190,79.18,188.19,81C176.24,93.1,164.05,105,151.76,116.69a7.17,7.17,0,0,0-2.39,7.41c3,16.88,6,33.78,8.58,50.73.36,2.37-.55,6.12-2.22,7.3s-5.52.86-7.69-.24q-22.73-11.49-45.11-23.68c-3.2-1.74-5.58-1.61-8.68.06-14.77,8-29.65,15.72-44.52,23.52A13.55,13.55,0,0,1,47.08,182.72ZM26.13,79.18l-.8,1.63c2.38,2.06,4.84,4,7.1,6.2,8.4,8.09,16.62,16.35,25.14,24.31a9.8,9.8,0,0,1,3.21,9.82c-1.55,8.34-3,16.71-4.44,25.07-1.09,6.4-2.11,12.82-3.3,20.09,14.21-7.46,27.5-14.34,40.67-21.41a9.4,9.4,0,0,1,9.83,0c11.71,6.33,23.54,12.45,35.32,18.63,1.51.8,3,1.54,5.2,2.62-.17-1.93-.18-2.91-.35-3.87-2.37-13.77-4.7-27.56-7.2-41.31-.65-3.6,0-6.43,2.73-9,6-5.57,11.75-11.32,17.61-17L172.9,79.37C156.54,77,141.79,74.75,127,72.79c-3.9-.52-6.35-2.18-8-5.73-2.55-5.6-5.35-11.09-8.09-16.6-4-8-8-15.94-12.36-24.75C91.67,39.79,85.12,52.86,78.84,66.06c-2,4.16-4.55,6.79-9.38,6.83a39.13,39.13,0,0,0-5.44.77Z"/>
    </style>
    <style id="pay" viewBox="0 0 198.34 138.05">
         <path d="M189.45,91.71V125c0,3.74-2,6.07-5.85,6.1-9.35.06-18.71-.07-28.07,0-14,0-28.08.11-42.12.14-3.74,0-7.48-.24-11.21-.14-5.23.14-10.46.5-15.69.75-.48,0-1,0-1.44,0l-31.62-.65A40.55,40.55,0,0,1,48.9,131a5.61,5.61,0,0,1-4.55-5.32c0-9.2,0-18.4.07-27.6a2.7,2.7,0,0,0-2.32-3q-12.49-3.36-24.94-7c-6.42-1.85-9.65-8.38-7.72-14.81C12.23,64,14.8,54.65,17.51,45.37c3.2-11,6.36-21.93,9.71-32.84a8.86,8.86,0,0,1,8.92-6.32,57.26,57.26,0,0,1,11,2.12c10.17,2.82,20.26,5.9,30.4,8.79,14.29,4.06,28.6,8,42.89,12.09q9.22,2.61,18.39,5.42c5.34,1.63,8.35,8.61,6.16,14-1.05,2.59-.72,3.08,2,3.08q17.74,0,35.51,0c4.58,0,6.76,1.82,6.83,6.43.16,11.19,0,22.38,0,33.57ZM117,110.88c2.82,0,5.14-2.17,6-5.23,2.43-8.44,4.8-16.9,7.27-25.33.5-1.7,0-2.56-1.61-3-10.45-3-20.89-6-31.33-9-10.75-3.07-21.51-6.1-32.26-9.17C59.7,57.63,54.35,56,49,54.44,41.15,52.2,33.3,50,25.49,47.74c-2.63-.78-3.09-.54-3.81,2.1-2.21,8.15-4.42,16.31-6.86,24.4-1.37,4.56-.1,7.38,4.55,8.72,5.83,1.68,11.69,3.27,17.52,5,6.75,2,13.45,4.09,20.22,6,10.1,2.81,20.37,5,30.32,8.29,8.86,2.89,17.8,5.42,26.77,7.87C115.28,110.35,116.34,110.69,117,110.88Zm19.5-52.38c-.53-.42-1.1-1.18-1.84-1.4-3.67-1.07-7.4-2-11.09-3Q98.68,47,73.81,39.88q-21.53-6.18-43-12.51c-2.07-.61-2.73.07-3.19,1.88-.87,3.4-1.72,6.83-2.87,10.14-.56,1.64-.29,2.38,1.29,2.83q4.71,1.34,9.42,2.72c10.71,3.16,21.4,6.39,32.14,9.48,9.89,2.85,19.84,5.5,29.74,8.34,11.11,3.19,22.18,6.52,33.3,9.7a2.15,2.15,0,0,0,1.9-.8C133.89,67.48,135.08,63.25,136.48,58.5Zm-.07,67.74v-.19c8.56,0,17.11,0,25.66,0,2.28,0,3.36-.85,3.76-3a13.48,13.48,0,0,1,1.37-3.81c3.19-6.07,7.85-10.4,14.74-11.94,1.7-.38,2.26-1.41,2.25-3.12,0-8.47,0-17,0-25.42a3,3,0,0,0-2.56-3.23c-8.82-2.15-13.91-8-16-16.57-.33-1.37-.85-1.88-2.2-1.87q-9.6,0-19.19,0A2.24,2.24,0,0,0,141.72,59c-1.83,6.7-3.78,13.36-5.67,20q-4.12,14.51-8.25,29c-1.63,5.73-6.75,9.11-12.48,7.83-3.64-.81-7.11-2.32-10.68-3.44-5.18-1.62-10.34-3.31-15.57-4.72-3.91-1-8-1.51-11.87-2.57-8.35-2.27-16.64-4.72-24.93-7.18-1.91-.57-2.75-.24-2.63,1.86a22.13,22.13,0,0,1-.06,4.07c-.26,1.88.48,2.62,2.28,3.18,8.46,2.66,14.66,7.67,16.55,16.84.37,1.8,1.54,2.15,3.16,2.17,6.21.06,12.42.25,18.63.29,6,0,12-.07,17.93-.08Q122.28,126.22,136.41,126.24Zm3.76-81a6.34,6.34,0,0,0-4.33-6c-2.84-.81-5.71-1.52-8.55-2.34-11.27-3.27-22.52-6.6-33.81-9.83-8.75-2.5-17.55-4.83-26.31-7.3q-14.41-4.08-28.79-8.28A4.45,4.45,0,0,0,33,13.46a46.5,46.5,0,0,0-2.49,5.88c-.66,1.53-.25,2.35,1.39,2.82,4.37,1.26,8.7,2.68,13.07,3.94q19.92,5.74,39.85,11.4Q110.48,44.8,136.21,52a2.59,2.59,0,0,0,2.29-.8A60.19,60.19,0,0,0,140.17,45.26ZM49.71,119h-.06c0,1.52.09,3,0,4.54-.12,1.67.63,2.36,2.21,2.37l9.08.1c2,0,2.5-1,1.87-2.79a16.35,16.35,0,0,0-11.22-10.52c-1.4-.44-1.91.14-1.87,1.52C49.75,115.78,49.71,117.37,49.71,119ZM177.47,57.07c-1.51,0-3,0-4.55,0-1.8-.08-2.41.77-1.78,2.35,2,4.85,5,8.72,10.06,10.61,2.16.81,2.89.25,3-2.11,0-1.27.08-2.56,0-3.83C183.68,56.11,185.83,57.19,177.47,57.07ZM184,119h.17c0-1.35-.07-2.7,0-4,.14-2-.71-2.47-2.46-1.9-5.31,1.75-8.57,5.57-10.57,10.61-.5,1.26-.25,2.21,1.42,2.21,3.1,0,6.2.12,9.3.11a2.12,2.12,0,0,0,2.31-2.44C184.14,122,184,120.5,184,119Z"/><path class="cls-1" d="M177.47,57.07c8.36.12,6.21-1,6.69,7,.08,1.27,0,2.56,0,3.83-.07,2.36-.8,2.92-3,2.11-5.07-1.89-8.11-5.76-10.06-10.61-.63-1.58,0-2.43,1.78-2.35C174.44,57.12,176,57.07,177.47,57.07Z"/><path class="cls-1" d="M184,119c.06,1.51.16,3,.19,4.53a2.12,2.12,0,0,1-2.31,2.44c-3.1,0-6.2-.09-9.3-.11-1.67,0-1.92-.95-1.42-2.21,2-5,5.26-8.86,10.57-10.61,1.75-.57,2.6,0,2.46,1.9-.09,1.35,0,2.7,0,4Z"/><path d="M30.59,65.77c1.06.29,2.75.75,4.43,1.23q12.43,3.52,24.85,7.08c1.54.44,3,1,4.57,1.45,1.7.51,2.55,2,1.82,3.26a4.05,4.05,0,0,1-3.48,1.58c-6.27-1.56-12.46-3.46-18.67-5.25L31.45,71.5c-.76-.22-1.54-.41-2.3-.64-1.49-.45-2.69-1.17-2.44-3S28.39,65.74,30.59,65.77Z"/><path d="M155.91,102.27c-6.48,0-10.84-4.79-10.74-11.71.08-5.41,5.46-10.27,11.42-9.85,6.47.45,9.92,4.83,10.34,10.88C167.32,97.07,161.6,102.31,155.91,102.27Zm.17-5.32a5.73,5.73,0,0,0,5.49-5.28c0-2.74-2.9-5.85-5.61-5.93s-5.52,2.9-5.46,5.65A5.35,5.35,0,0,0,156.08,97Z"/><path class="cls-1" d="M156.08,97a5.35,5.35,0,0,1-5.58-5.56c-.06-2.75,2.83-5.74,5.46-5.65s5.65,3.19,5.61,5.93A5.73,5.73,0,0,1,156.08,97Z"/>
    </style>
    <style id="del" viewBox="0 0 318.19 167.86">
         <path d="M206.45,16.58H54.85c-1.65,0-3.78.46-4.87-.37-1.75-1.33-4-3.61-3.89-5.41S48.6,7,50.42,5.72c1-.72,2.91-.26,4.41-.26H209.29c7.3,0,8.68,1.37,8.68,8.77q0,56.74,0,113.48c0,7.32-1.37,8.64-8.77,8.64H151.7c-1.33,0-3,.49-3.92-.15-2.06-1.52-4.8-3.35-5.26-5.49-.66-3,1.8-5.16,5.14-5.45,1.49-.13,3-.09,4.49-.09h54.3Z"/><path d="M222,39.4c-1.18-9.19.4-11,9-11,10.15,0,20.31,0,30.46-.13,9.4-.14,16.27,3.85,20.81,12q9.06,16.35,18.2,32.68a57.52,57.52,0,0,1,7.62,29.6c-.12,6.49.09,13,0,19.48a14.88,14.88,0,0,1-20,13.84c-1.77-.68-4-3.82-3.68-5.43a7.6,7.6,0,0,1,4.85-5c7.71-1.62,7.77-1.34,7.74-9.48,0-4.5-.06-9,0-13.48a46.15,46.15,0,0,0-6-23.42c-6.05-10.91-12.11-21.81-18.08-32.76-2.66-4.87-6.46-7.09-12.14-7C248,39.56,235.16,39.4,222,39.4Z"/><path d="M280,136.2a26.44,26.44,0,1,1-26.73-26.54A26.34,26.34,0,0,1,280,136.2ZM253.41,121a15.17,15.17,0,0,0-15.07,15.31,15.58,15.58,0,0,0,15.44,15.11c8.22-.08,15.3-7.31,15.1-15.43A15.25,15.25,0,0,0,253.41,121Z"/><path d="M110.88,162.52a26.44,26.44,0,1,1,26.42-26.24A26.21,26.21,0,0,1,110.88,162.52Zm-15.1-26.58a15.16,15.16,0,1,0,15.31-15.08A15.29,15.29,0,0,0,95.78,135.94Z"/><path d="M59.49,66.79c-10.15,0-20.3,0-30.45,0-3.95,0-7.23-1-7.22-5.58S25,55.57,29,55.58q30.71.06,61.4,0c4,0,7.24,1.28,7.28,5.64s-3.21,5.65-7.23,5.61C80.13,66.74,69.81,66.79,59.49,66.79Z"/><path d="M39.46,38.32H17c-4,0-7-1.38-6.94-5.89.09-4.35,3.31-5.35,7-5.36,15.12,0,30.25.06,45.38,0,4,0,7.29,1.19,7.23,5.61s-3.15,5.71-7.25,5.64C54.76,38.23,47.11,38.32,39.46,38.32Z"/><path d="M68.64,95.38H53.15c-3.89,0-6.7-1.65-6.66-5.74,0-3.84,2.7-5.41,6.41-5.4q16.24,0,32.49,0c3.83,0,6.27,2,6.17,5.66s-2.64,5.51-6.42,5.47c-5.5,0-11,0-16.5,0Z"/><path d="M54.48,117.21c0-2-.1-4,0-6,.23-3.49,2.15-5.66,5.68-5.62s5.35,2.34,5.51,5.78c.14,3,.17,6,0,9-.18,3.41,1.31,4.89,4.66,4.83,2.32,0,4.92-.53,6.88.33s4.3,3.07,4.43,4.84-2.22,5.42-3.5,5.43c-5.66,0-11.66,0-16.88-1.82C55.68,132,54.52,127.32,54.48,117.21Z"/>
    </style>
    <style id="like" viewBox="0 0 579.89 643.05">
         <path d="M386.71,633.05c-29,2-57.39-3.72-85.94-7.51-17.64-2.34-34.73-6.31-50.48-14.63a181.57,181.57,0,0,1-23-14.89c-15.78-11.7-31.22-23.86-46.86-35.77a9,9,0,0,0-4.36-1.88c-7.93-.68-15.88-1.38-23.83-1.58-13.31-.33-26.66-.92-39.94-.28-22,1.07-43.62.42-63.58-10.52a20.35,20.35,0,0,1-4-2.88C27.88,527.48,17.8,508,14,485.57A359.66,359.66,0,0,1,9,437c-.65-20.76-.22-41.61.95-62.36.93-16.7,5.23-32.78,14.45-47.2,10.68-16.7,26-27.26,44.86-31.93,12.33-3.05,25.2-4.45,37.91-5.28,11.76-.77,23.64.63,35.45.3,23.15-.64,41.33-11.43,55.54-29.16,20.36-25.41,41.06-50.58,60.47-76.71,14.69-19.77,25.15-42.07,29.42-66.57,1.66-9.57,1.41-19.55,1.32-29.34-.11-12-1.17-23.94-1.35-35.91,0-3,1.8-6,2.6-9,3.22-12.28,10.1-22.22,20.78-28.79,4.7-2.89,10.85-3.91,16.5-4.7,28.11-3.94,49.36,8.25,66.7,29.17,24.62,29.71,33.17,64.24,30.34,102.08-1.26,16.75-7.37,32.14-12.8,47.9-6.31,18.37-13.09,37.22-9.42,57.43,2.58,14.14,12.29,22.68,25,26.07,27,7.18,54.34,12.78,81.53,19.11,15,3.49,29.35,9.52,40.4,19.76,12.52,11.6,19.44,27.28,21.13,44.69,2.09,21.51-2.75,41-17.6,57.26-4.07,4.47-5.55,8.94-4.95,15.22,2.19,22.89-5.44,42.87-21.7,58.74-8.49,8.29-14.74,16.31-13.77,28.83.81,10.36-3.91,19.68-8.88,28.1-6.79,11.51-15.72,21.53-28.75,26.82a7,7,0,0,0-3.46,3.64,65.3,65.3,0,0,0-3,10.55c-4.16,21-17.2,35-36.1,43.45-6.15,2.75-13.52,3.25-20.4,3.74C403.74,633.51,395.21,633.05,386.71,633.05Zm-359-217c0,11.48-.8,23,.17,34.43,1.8,21.15,6.3,41.68,16.44,60.75q11.46,21.54,35,24.75c10,1.37,20.14,1.69,30.23,2,25,.83,49.9,1.36,74.84,2.15a9.18,9.18,0,0,1,4.87,2c13.37,10.2,26.61,20.56,40,30.78,17.8,13.63,36.38,26,58.8,30.56,12.37,2.52,25,3.77,37.39,6.18,27.33,5.32,54.92,6.13,82.59,5.11,19.53-.72,38.16-13.45,41.83-35.38,2.21-13.2,7.94-23.26,21.09-28.34a22.64,22.64,0,0,0,8.61-6.62c9-10.88,15.62-23.39,15-37.6-.51-11.32,4-18.53,11.63-25.75,16.1-15.15,25.49-33.61,23.44-56.36-.86-9.5,2.37-16.58,8.43-23.78,14.53-17.26,18.73-36.74,8.76-57.9-3.89-8.25-8.39-15.88-17-20.79-12.31-7-25.38-11.3-39.09-14.35-24.5-5.44-48.91-11.26-73.33-17a12.58,12.58,0,0,1-5.38-2.38c-7.84-7-15.52-14.09-23.15-21.27-1-.93-1.45-2.49-2-3.83-5-12.69-3.71-26-2.92-39,1-16.29,5.37-32.08,11.48-47.23,6.21-15.38,11.86-31.13,11.58-47.7a127.4,127.4,0,0,0-25.48-74.9C371.42,41,358.18,31.2,340.92,28.69c-9-1.31-18.08,0-24.24,7.42a42.13,42.13,0,0,0-9.8,25.57c-.39,11.63.76,23.29.71,34.94,0,10.13.2,20.45-1.53,30.36-4.32,24.66-15.31,46.75-29.57,67.07-9.94,14.15-20.91,27.57-31.47,41.28-15.66,20.34-32.19,39.89-51.16,57.29A53.07,53.07,0,0,1,174.76,304c-16.15,5.53-32.75,5.47-49.38,4.43a138,138,0,0,0-55.94,7.83c-18.26,6.54-29.53,19.4-35.54,37.66C27.23,374.19,26.45,395.05,27.7,416.08Z"/>
    </style>
    <style id="logo" viewBox="0 0 661.4 473.05">
         <path d="M6.11,421a32.81,32.81,0,0,1,4.83-1.05c5.16-.39,6.4-3.39,6.49-8.11.37-18,1.09-36,1.6-54q2.16-76.69,4.29-153.4c.13-4.27.67-8.45-5.34-9.26-.77-.1-1.77-2.27-1.78-3.49-.13-13,0-26-.13-39,0-2.81,1-4.17,3.79-3.73A32.6,32.6,0,0,1,27,150.64c20.31,8.19,40.39,17,60.91,24.64,17.7,6.58,35.86,12,53.89,17.65,9,2.83,18.08,5.35,27.23,7.57,7.73,1.88,12.18,9.16,11.88,16.67-.42,10.65-.44,21.31-.86,32-1.11,28.24-2.43,56.47-3.5,84.71-.65,17.48-1,35-1.49,52.45-.09,2.88.37,4.62,3.91,4.88,2.84.2,4.38,2.13,4.21,5.53-.32,6.15-.07,12.32-.1,18.49,0,6.71-3.09,10-9.65,11q-16.72,2.56-33.38,5.53c-4,.71-6.07-.32-6-4.72.12-7.33.14-14.66,0-22-.08-4.56,2.29-6.71,6.34-8.08s6.56-3.77,6.73-8.56c1-28,2.17-55.93,3.34-83.9.93-22.3,2-44.59,2.76-66.9.05-1.2-1.66-3.28-2.88-3.57-10.47-2.54-21-4.8-31.52-7.07-2.67-.57-3.85.44-4,3.42q-2.78,63.16-5.77,126.31c-.6,13-1.06,26-1.85,38.94-.24,4,.57,6.09,5,5.43,3.61-.55,4.82,1.84,4.88,4.75.15,8.16.57,16.38-.23,24.46-.27,2.73-3.41,6.61-6,7.41-11.77,3.6-23.8,6.34-35.77,9.25-3.51.85-5.16-.57-5.07-4.49.21-9.66.11-19.33,0-29,0-3.29,1-5.29,4.7-5.62,5.7-.5,7.16-2.25,7.31-7.9q2.15-79.69,4.29-159.38c.16-6,.2-12,.82-18,.32-3-1.08-3.88-3.3-4.56-9.85-3-19.7-6.05-29.58-9-4.34-1.3-4.83-.4-4.62,4.29.26,5.8-.2,11.64-.4,17.46q-2.93,85.16-5.83,170.32c-.11,3.45.37,6.91.57,10.28,7.12,1.24,7.18,1.27,7.16,8.76,0,8.83-.28,17.66,0,26.48.12,4.38-1.78,7.36-5.46,8.59-12,4-24.09,7.6-36.18,11.23-1,.31-2.27-.25-3.42-.4Z"/><path d="M577.5,333c-1.5,19.05-2.94,37.3-4.38,55.55-.29,3.65-.44,7.32-1,10.94s.78,6.28,4.16,7.48c3.67,1.3,4.43,4,4.26,7.32-.43,9-.8,18-1.27,26.94-.23,4.4-3.34,6.66-7.74,5.51C561,444,550.48,441,539.9,438.23c-4.2-1.1-6-3.51-5.82-7.86.43-8.77.79-17.56.95-26.34.06-3.43,1.77-4.46,4.72-4.14,4.4.47,5.61-1.56,5.78-5.77,1.4-33.95,3-67.89,4.54-101.84,1.39-31.61,2.67-63.23,4.07-94.84.27-6.3,7.23-14.56,13.88-16.66,17.71-5.6,35.56-10.8,53.1-16.9,7.27-2.53,13.88-6.95,20.8-10.5a24.9,24.9,0,0,1,4.5-2.12c7-1.95,9-.31,8.86,6.8-.31,14.31-.84,28.61-.79,42.92,0,4.77-1.62,7.59-5.94,8.9-3.49,1.06-4.38,3.4-4.48,6.78-.64,21.13-1.22,42.27-2.18,63.39-1.15,25.22-2.65,50.42-4,75.63-1.1,20.6-2.26,41.2-3.19,61.8-.06,1.42,1.43,4,2.48,4.19,5,.76,6.32,4,6.1,8.19q-.88,16.89-2.23,33.77c-.35,4.57-3.17,6-7.64,4.43-9.39-3.35-18.75-6.78-28.21-9.95-4.82-1.61-7.44-4.15-7.19-9.69.41-8.82.13-17.66.32-26.49a26.54,26.54,0,0,1,1.27-5.73c.71-2.81,2.27-3.49,5.19-2.79,4.76,1.15,6.06-.08,6.27-4.84,1-23.45,1.92-46.92,3.16-70.36.22-4.13-1-5.33-4.89-5.27C598.87,333.08,588.4,333,577.5,333Z"/><path d="M616.33,249.82H619c0-11.65-.06-23.29,0-34.94,0-3-.61-4.32-4-3.5-9.79,2.34-19.63,4.48-29.47,6.59-3.9.84-6.31,3-6.39,7-.41,20.62-.79,41.25-.93,61.87,0,1.26,2.07,3.58,3.26,3.63q14.22.55,28.46.3c3.82-.07,6.69-1.36,6.52-6.51C616.07,272.79,616.33,261.3,616.33,249.82Z"/><path d="M432.41,180.91A65.08,65.08,0,0,1,409,172.36c-6-3.53-11.39-8-16.9-12.24-14.54-11.2-24.4-26.13-33.05-42s-10.47-32.73-8.27-50.34c.43-3.46.3-7,.76-10.46.73-5.58-2.55-9.15-6.15-12.38-3-2.67-6.17-2.17-9.56.07C324.17,52.72,318,64,313.88,76.84c-7.65,24-3.11,46.63,9.29,67.6,5.15,8.69,12.89,16,20,23.33,4.4,4.55,9.9,8,14.71,13-2-.22-4.06,0-5.81-.74A134.66,134.66,0,0,1,311,154.33c-22.46-20.61-34.19-46.76-37.42-76.63-.82-7.56,1.43-15.5,2.63-23.21.71-4.57.75-8.82-3.58-11.41-1.46-.88-4.51-1-5.72-.1-13.57,10.61-23.34,23.6-24.82,41.5-.63,7.57-2,15.15-1.8,22.69.4,12.88,3.8,25,11.94,35.47,4.56,5.86,8.38,12.39,13.52,17.67,5.94,6.11,12.95,11.18,19.5,16.71.6.5,1.15,1,2.61,2.39-2.33.14-3.79.59-5,.23-15.74-4.67-30.4-11.16-41.32-24.19-6.25-7.47-13.18-14.38-19.26-22-8.81-11-13.17-24.3-17.34-37.53-3.21-10.19-1.61-20.58-1.09-31,.44-9.06,1.93-17.88,6.15-25.61,9.38-17.2,22.67-30.21,42.64-34.57,4.09-.89,7.76-.09,10.8,3.32,6.09,6.83,12.51,13.37,18.56,20.23,2.26,2.57,3.71,1.75,5.72-.06,5.88-5.33,11.85-10.57,17.83-15.78,5.59-4.88,12.43-7.08,19.54-8,2.35-.32,5.84.73,7.35,2.45C339.91,15.36,347,24.15,354,33.08c2.73,3.51,4.43,1.63,6.29-.4,4.13-4.51,8-9.31,12.26-13.65A50,50,0,0,1,397,5.42c7-1.65,9.72-.55,13.79,5.41C416,18.38,421,26,426,33.28c-7.61,6.68-15,13-22.22,19.57-10,9.19-15.35,20.83-16.31,34.28-1.21,17-.79,34,6.82,49.84,7.86,16.37,18.86,30,34.82,39.2a40.9,40.9,0,0,1,4.12,3.12Z"/><path d="M307.16,383.24c0,7.31.23,14.3-.08,21.26a7.48,7.48,0,0,1-7.27,7.44c-12.93,1-25.89,1.67-39.64,2.51,0-9.4-.1-18.32.16-27.22,0-.78,2.33-2,3.67-2.15,5.56-.61,8.1-3.18,8.11-8.8V331h-14.5c-6.33,0-12.66-.05-19,0-3.62,0-6.38,1.75-6.43,5.51-.17,16.1-.07,32.21-.07,48.73a8.12,8.12,0,0,1,3.18.59c1.45.87,3.6,2.24,3.66,3.49.35,7.48.71,15,0,22.47-.45,4.71-4.64,7.31-9.23,7.77q-15.61,1.53-31.31,2.35c-6.59.33-7.3-.67-7.31-7.44V400c0-9.69.55-10.28,10.68-11.26.43-8.33.94-16.73,1.31-25.15q1.89-42.17,3.69-84.36c.7-16.47,1.05-33,2.17-49.43A26.06,26.06,0,0,1,213.58,217c1.73-2.42,6.14-4.32,9.21-4.14,23.44,1.36,46.85,3.31,70.27,5,7.31.54,9.78,2,9.93,9.33.29,14.76-.41,29.55-.71,44.32,0,2.5-.08,5-.17,7.5q-1.49,41.32-3,82.64c-.15,4.14-.69,8.26-.8,12.4C298.1,382.42,298.17,382.42,307.16,383.24Z"/><path d="M254.11,299.86V300c4,0,8-.06,12,0,9,.16,9.94-.72,10-10.08,0-6.66,0-13.32,0-20,0-5.16-.12-10.33.11-15.48.21-4.73-1.48-7.19-6.23-7.45q-13.14-.72-26.31-1c-6.88-.14-9.22,1.79-9.49,8.54-.56,13.6-.71,27.22-1.11,40.83-.09,3.27,1.49,4.49,4.53,4.48C243.12,299.84,248.61,299.86,254.11,299.86Z"/><path d="M510.11,249.92c0-4.66-.13-8.64,0-12.61.13-3.2-1-4.84-4.32-4.31-9.06,1.44-18.11,2.88-27.13,4.49-3.11.55-7.25.66-8.87,2.65s-.62,6-.71,9.16q-.6,20.46-1.17,40.91c-.09,3.36.43,4.46,4.77,4.35,17.13-.42,34.29.05,51.43.41,3.51.07,8.07,6.06,7.91,10.19-.51,13.92-1.24,27.83-1.89,41.74-.34,7.47-.71,14.94-1,22.41Q528,393.24,527,417.17c-.47,10.79-5.8,15.64-16.22,13.76-21.53-3.87-43-8.08-64.48-12.3-5.18-1-8.92-6.06-9.08-12.35-.24-9.65-.23-19.33,0-29,.1-3.71,1.71-6.58,6.43-6.37,5.95.25,11.92.06,18.46.06,0,4.61-.11,8.22,0,11.83.12,3.09,1.08,5,5,5.32,11.48,1,22.91,2.7,34.95,4.19a34,34,0,0,0,1-5.06q.63-9.18.94-18.39c.4-11.43.62-22.87,1.09-34.3.13-3.41-.83-4.7-4.5-4.64-14.49.21-29-.41-43.46.28-11.92.56-16.2-6.77-16.05-16.37.35-22,1-44,1.56-66,.18-7.16-.12-14.37.64-21.46.69-6.46,1.89-13.14,8-17.16a16.52,16.52,0,0,1,5.44-2.28c21.58-4.69,43.17-9.4,64.81-13.85,10.65-2.19,14.58,1.3,14.38,12.09-.23,12.47-.6,24.93-.8,37.4-.07,4.44-2.18,7-6.5,7.22C522.72,250.12,516.74,249.92,510.11,249.92Z"/><path d="M363.91,248h-12c-3.89,0-5.67,2-5.83,5.81A159.25,159.25,0,0,1,345,271c-.22,1.5-2.92,3.58-4.64,3.74a96.76,96.76,0,0,1-16,.08c-1.46-.1-4-2.09-4-3.15.39-15.55.95-31.1,1.91-46.62.3-4.86,3.52-7.53,8.79-7.55,5.65,0,11.31-.45,17-.7,13.56-.62,27.14-1,40.67-1.93,11.93-.86,23.81-2.42,35.71-3.66,1-.11,2-.21,3-.25,9.45-.31,9.75,0,9.75,9.5q0,20.74,0,41.49a11.49,11.49,0,0,1-10.93,11c-3.33,0-6.68-.26-10,0-4.75.38-6.09-2.17-6.08-6.24,0-5.5-.09-11,0-16.5.07-2.87-.79-4.41-3.94-4.28-3.49.14-7.08-.43-10.46.21-1.69.32-4.21,2.59-4.28,4.07-.43,9.1,0,18.24-.34,27.35q-1.78,48.2-4,96.38c-.23,5.11.33,8.67,6.52,9.26,1.3.12,3.22,3,3.33,4.67.42,6.31.35,12.66.15,19-.12,3.83-2.22,6.27-6.34,6.07-13.08-.63-26.16-1.25-39.22-2.19-1.24-.09-3.25-2.3-3.33-3.61a130.86,130.86,0,0,1,.05-18.47c.14-1.69,2.52-4,4.33-4.57,8-2.38,8.58-2.75,8.76-11.09q1.27-61.23,2.5-122.44C363.92,249.94,363.91,249.3,363.91,248Z"/><path class="cls-1" d="M616.33,249.82c0,11.48-.26,23,.13,34.44.17,5.15-2.7,6.44-6.52,6.51q-14.22.27-28.46-.3c-1.19-.05-3.27-2.37-3.26-3.63.14-20.62.52-41.25.93-61.87.08-4,2.49-6.16,6.39-7,9.84-2.11,19.68-4.25,29.47-6.59,3.42-.82,4.06.46,4,3.5-.1,11.65,0,23.29,0,34.94Z"/><path class="cls-1" d="M254.11,299.86c-5.5,0-11,0-16.49,0-3,0-4.62-1.21-4.53-4.48.4-13.61.55-27.23,1.11-40.83.27-6.75,2.61-8.68,9.49-8.54q13.16.28,26.31,1c4.75.26,6.44,2.72,6.23,7.45-.23,5.15-.1,10.32-.11,15.48,0,6.66,0,13.32,0,20-.06,9.36-1,10.24-10,10.08-4-.07-8,0-12,0Z"/>
    </style>
</svg>